<?xml version="1.0" encoding="UTF-8"?>
<svg id="Layer_2" data-name="Layer 2" xmlns="http://www.w3.org/2000/svg" viewBox="0 0 116.1 24.42">
  <defs>
  <style>
    .cls-1 {
        fill: #000;
        stroke-width: 0px;
    }
  </style>
  </defs>
  <g id="Layer_1-2" data-name="Layer 1">
    <g>
      <g>
        <path class="cls-1" d="M32.02,15.65c0-2.43,1.98-4.36,4.48-4.36,1.16,0,2.17.39,3,1.07l-1.36,1.58c-.39-.35-.92-.57-1.59-.57-1.31,0-2.25.96-2.25,2.28s.89,2.28,2.32,2.28c.7,0,1.39-.27,1.83-.69l1.19,1.68c-.81.69-1.93,1.09-3.14,1.09-2.5,0-4.48-1.93-4.48-4.36Z"/>
        <path class="cls-1" d="M40.8,8.81h2.25v3.71c.65-.87,1.58-1.23,2.58-1.23,2.18,0,2.99,1.38,2.99,3.73v4.83h-2.25v-4.55c0-1.23-.37-1.88-1.48-1.88-1.19,0-1.85.96-1.85,2.17v4.26h-2.25v-11.04Z"/>
        <path class="cls-1" d="M49.98,15.65c0-2.42,1.88-4.36,4.35-4.36,2.28,0,4.08,1.95,4.08,4.33,0,.4-.05.81-.05.81h-6.09c.27,1.16,1.23,1.71,2.33,1.71.81,0,1.64-.23,2.27-.65l.84,1.61c-.94.62-2.03.92-3.12.92-2.45,0-4.6-1.59-4.6-4.36ZM56.29,14.93c-.17-1.06-1.01-1.76-2.03-1.76s-1.81.7-2.03,1.76h4.06Z"/>
        <path class="cls-1" d="M59.63,15.65c0-2.43,1.98-4.36,4.48-4.36,1.16,0,2.17.39,3,1.07l-1.36,1.58c-.39-.35-.92-.57-1.59-.57-1.31,0-2.25.96-2.25,2.28s.89,2.28,2.32,2.28c.7,0,1.39-.27,1.83-.69l1.19,1.68c-.81.69-1.93,1.09-3.14,1.09-2.5,0-4.48-1.93-4.48-4.36Z"/>
        <path class="cls-1" d="M68.41,8.81h2.25v6.14l2.89-3.49h2.74l-3.27,3.66,3.83,4.73h-2.7l-2.52-3.21-.96,1.14v2.06h-2.25v-11.04Z"/>
        <path class="cls-1" d="M78.04,11.68h1.28v1.41c.45-.89,1.48-1.58,2.62-1.58,1.31,0,2.23.57,2.62,1.73.59-1.19,1.86-1.73,2.82-1.73,1.96,0,3,1.14,3,3.39v4.95h-1.29v-4.78c0-1.39-.49-2.32-1.98-2.32-1.38,0-2.25,1.11-2.25,2.33v4.77h-1.29v-4.78c0-1.39-.49-2.32-1.96-2.32s-2.28,1.21-2.28,2.4v4.7h-1.28v-8.17Z"/>
        <path class="cls-1" d="M92.04,15.77c0-2.4,1.59-4.26,3.86-4.26,1.31,0,2.47.54,3.07,1.59v-1.43h1.28v8.17h-1.28v-1.43c-.6,1.07-1.76,1.59-3.07,1.59-2.27,0-3.86-1.88-3.86-4.25ZM98.97,15.77c0-1.71-1.23-3.02-2.79-3.02s-2.84,1.28-2.84,3.02,1.21,3,2.84,3,2.79-1.29,2.79-3Z"/>
        <path class="cls-1" d="M102.83,17.4v-4.67h-1.23v-1.06h1.23v-1.76l1.28-.23v2h2.79v1.06h-2.79v4.7c0,1.12.49,1.44,1.14,1.44.76,0,1.34-.45,1.34-.45l.42.99c-.32.22-.99.6-1.88.6-1.44,0-2.3-.7-2.3-2.62Z"/>
        <path class="cls-1" d="M108.08,15.77c0-2.37,1.78-4.26,4.11-4.26,2.18,0,3.91,1.88,3.91,4.21,0,.23-.03.49-.03.5h-6.66c.2,1.63,1.46,2.65,2.97,2.65.92,0,1.85-.32,2.52-.87l.55.94c-.87.69-1.96,1.07-3.09,1.07-2.32,0-4.28-1.66-4.28-4.25ZM114.84,15.25c-.13-1.51-1.29-2.6-2.72-2.6s-2.53,1.07-2.72,2.6h5.44Z"/>
      </g>
      <polygon class="cls-1" points="14.02 10.4 14.02 17.55 6.87 17.55 6.87 10.4 14.02 10.4 14.02 3.53 0 3.53 0 24.42 20.89 24.42 20.89 10.4 14.02 10.4"/>
      <rect class="cls-1" x="17.36" width="7.06" height="7.06"/>
    </g>
  </g>
</svg>
